HIERARCHY
ROOT Hips
{
	OFFSET 0.00000 0.00000 0.00000
	CHANNELS 6 Xposition Yposition Zposition Zrotation Yrotation Xrotation 
	JOINT LHipJoint
	{
		OFFSET 0 0 0
		CHANNELS 3 Zrotation Yrotation Xrotation
		JOINT LeftUpLeg
		{
			OFFSET 1.65412 -1.54119 0.76744
			CHANNELS 3 Zrotation Yrotation Xrotation
			JOINT LeftLeg
			{
				OFFSET 2.19550 -6.03209 0.00000
				CHANNELS 3 Zrotation Yrotation Xrotation
				JOINT LeftFoot
				{
					OFFSET 2.38814 -6.56138 0.00000
					CHANNELS 3 Zrotation Yrotation Xrotation
					JOINT LeftToeBase
					{
						OFFSET 0.17337 -0.47632 1.75875
						CHANNELS 3 Zrotation Yrotation Xrotation
						End Site
						{
							OFFSET 0.00000 -0.00000 0.92050
						}
					}
				}
			}
		}
	}
	JOINT RHipJoint
	{
		OFFSET 0 0 0
		CHANNELS 3 Zrotation Yrotation Xrotation
		JOINT RightUpLeg
		{
			OFFSET -1.40291 -1.54119 0.76744
			CHANNELS 3 Zrotation Yrotation Xrotation
			JOINT RightLeg
			{
				OFFSET -2.22156 -6.10370 0.00000
				CHANNELS 3 Zrotation Yrotation Xrotation
				JOINT RightFoot
				{
					OFFSET -2.46840 -6.78188 0.00000
					CHANNELS 3 Zrotation Yrotation Xrotation
					JOINT RightToeBase
					{
						OFFSET -0.15659 -0.43024 1.84117
						CHANNELS 3 Zrotation Yrotation Xrotation
						End Site
						{
							OFFSET -0.00000 -0.00000 0.95587
						}
					}
				}
			}
		}
	}
	JOINT LowerBack
	{
		OFFSET 0 0 0
		CHANNELS 3 Zrotation Yrotation Xrotation
		JOINT Spine
		{
			OFFSET -0.01936 1.82120 -0.32061
			CHANNELS 3 Zrotation Yrotation Xrotation
			JOINT Spine1
			{
				OFFSET -0.00532 1.85767 -0.00071
				CHANNELS 3 Zrotation Yrotation Xrotation
				JOINT Neck
				{
					OFFSET 0 0 0
					CHANNELS 3 Zrotation Yrotation Xrotation
					JOINT Neck1
					{
						OFFSET -0.10687 1.58194 0.10810
						CHANNELS 3 Zrotation Yrotation Xrotation
						JOINT Head
						{
							OFFSET 0.15346 1.57382 -0.25612
							CHANNELS 3 Zrotation Yrotation Xrotation
							End Site
							{
								OFFSET 0.05334 1.61251 -0.10513
							}
						}
					}
				}
				JOINT LeftShoulder
				{
					OFFSET 0 0 0
					CHANNELS 3 Zrotation Yrotation Xrotation
					JOINT LeftArm
					{
						OFFSET 2.85758 0.89498 -0.01485
						CHANNELS 3 Zrotation Yrotation Xrotation
						JOINT LeftForeArm
						{
							OFFSET 4.79185 -0.00000 -0.00000
							CHANNELS 3 Zrotation Yrotation Xrotation
							JOINT LeftHand
							{
								OFFSET 2.65553 -0.00000 0.00000
								CHANNELS 3 Zrotation Yrotation Xrotation
								JOINT LeftFingerBase
								{
									OFFSET 0 0 0
									CHANNELS 3 Zrotation Yrotation Xrotation
									JOINT LeftHandIndex1
									{
										OFFSET 0.74390 -0.00000 0.00000
										CHANNELS 3 Zrotation Yrotation Xrotation
										End Site
										{
											OFFSET 0.59975 -0.00000 0.00000
										}
									}
								}
								JOINT LThumb
								{
									OFFSET 0 0 0
									CHANNELS 3 Zrotation Yrotation Xrotation
									End Site
									{
										OFFSET 0.60891 -0.00000 0.60891
									}
								}
							}
						}
					}
				}
				JOINT RightShoulder
				{
					OFFSET 0 0 0
					CHANNELS 3 Zrotation Yrotation Xrotation
					JOINT RightArm
					{
						OFFSET -2.93906 0.88031 0.02490
						CHANNELS 3 Zrotation Yrotation Xrotation
						JOINT RightForeArm
						{
							OFFSET -4.77254 -0.00000 -0.00000
							CHANNELS 3 Zrotation Yrotation Xrotation
							JOINT RightHand
							{
								OFFSET -2.75995 -0.00000 -0.00000
								CHANNELS 3 Zrotation Yrotation Xrotation
								JOINT RightFingerBase
								{
									OFFSET 0 0 0
									CHANNELS 3 Zrotation Yrotation Xrotation
									JOINT RightHandIndex1
									{
										OFFSET -0.70162 -0.00000 0.00000
										CHANNELS 3 Zrotation Yrotation Xrotation
										End Site
										{
											OFFSET -0.56566 -0.00000 0.00000
										}
									}
								}
								JOINT RThumb
								{
									OFFSET 0 0 0
									CHANNELS 3 Zrotation Yrotation Xrotation
									End Site
									{
										OFFSET -0.57430 -0.00000 0.57430
									}
								}
							}
						}
					}
				}
			}
		}
	}
}
MOTION
Frames: 5
Frame Time: .0083333
0.7866 15.7261 -1.3839 5.0608 -0.9649 8.8834 0.0000 0.0000 0.0000 -21.9214 -9.1733 -24.2927 2.5280 9.8886 28.6169 0.2081 -3.0584 -8.1052 0.1476 -2.4760 -6.8232 0.0000 0.0000 0.0000 4.5200 16.2580 -26.6816 -4.3578 -12.6219 37.9691 -0.5178 -5.6266 -16.8120 -0.6869 5.2987 -14.7626 3.8077 -1.9457 23.1027 4.6847 -0.9305 0.4288 3.4272 -0.4733 -12.5174 -14.8348 -12.1671 -8.8179 11.4588 -16.9427 20.4224 4.1971 -7.9727 10.2379 0.0000 0.0000 0.0000 -40.7005 20.1690 97.0309 106.4888 -58.9473 -74.2293 -0.0000 0.0000 -36.4033 -15.6434 13.2552 -3.6737 -7.1250 0.0000 -0.0000 -36.6013 40.2544 5.0941 0.0000 0.0000 0.0000 15.6005 0.1702 -52.6792 -50.0563 53.0182 -26.2191 0.0000 0.0000 23.2001 11.3590 6.6692 1.3365 7.1250 -0.0000 -0.0000 27.0956 -23.0806 16.1415
0.7942 15.7166 -1.3999 5.3265 -1.1165 8.9397 0.0000 0.0000 0.0000 -22.2324 -9.0960 -24.5434 2.5483 9.9252 28.7348 0.2104 -2.9951 -8.1478 0.1671 -2.6332 -7.2592 0.0000 0.0000 0.0000 4.1071 16.3288 -26.9835 -4.4143 -12.6922 38.2268 -0.5264 -5.4352 -16.7692 -0.6338 5.0939 -14.1765 3.9259 -1.9605 23.3653 4.9029 -0.8691 0.4205 3.6019 -0.4420 -12.6758 -14.8736 -12.1120 -8.7101 11.4597 -16.8180 19.9684 4.2301 -7.9280 10.0405 0.0000 -0.0000 0.0000 -40.9152 20.3750 96.9806 106.2697 -58.9758 -74.0415 -0.0000 0.0000 -36.1929 -15.8703 13.3441 -3.7541 -7.1250 0.0000 -0.0000 -36.8107 40.3035 5.0808 0.0000 -0.0000 0.0000 15.0462 0.3417 -52.8822 -50.1364 53.0504 -26.2831 0.0000 0.0000 22.9631 11.1635 6.7876 1.3361 7.1250 -0.0000 -0.0000 26.9446 -22.9820 16.0979
0.8029 15.7074 -1.4162 5.5704 -1.2726 9.0514 0.0000 0.0000 0.0000 -22.5012 -9.1463 -24.7924 2.5653 9.9557 28.8335 0.2120 -2.8623 -8.1793 0.1774 -2.7133 -7.4816 0.0000 0.0000 0.0000 3.6886 16.3998 -27.3875 -4.4678 -12.7582 38.4699 -0.5303 -5.3249 -16.7323 -0.6571 5.1849 -14.4367 4.0895 -1.9714 23.5790 5.1027 -0.7919 0.3638 3.7254 -0.4069 -12.8653 -14.8037 -12.0292 -8.4711 11.3783 -16.6755 19.5487 4.2294 -7.8797 9.8114 -0.0000 0.0000 0.0000 -41.0658 20.5789 97.0191 106.1517 -58.9910 -73.9403 -0.0000 0.0000 -36.1856 -15.8828 13.5318 -3.8089 -7.1250 0.0000 -0.0000 -36.9099 40.4596 4.9271 -0.0000 0.0000 0.0000 14.5268 0.4425 -53.0110 -50.1404 53.0520 -26.2863 0.0000 0.0000 22.7082 10.8646 7.1372 1.3660 7.1250 -0.0000 -0.0000 26.6790 -22.6774 16.1123
0.8112 15.7018 -1.4333 5.6284 -1.3296 9.1271 0.0000 0.0000 0.0000 -22.5591 -9.2315 -24.9851 2.5807 9.9832 28.9224 0.2146 -2.8049 -8.2322 0.1696 -2.6527 -7.3133 0.0000 0.0000 0.0000 3.5252 16.3930 -27.7075 -4.5168 -12.8181 38.6913 -0.5320 -5.2770 -16.7166 -0.6694 5.2322 -14.5719 4.5317 -2.0096 23.8413 5.3174 -0.6708 0.3797 3.6902 -0.3692 -13.0034 -14.6633 -12.0275 -8.4765 11.3044 -16.6335 19.1696 4.1899 -7.8605 9.6524 -0.0000 -0.0000 0.0000 -41.2222 20.5962 96.9768 106.0050 -59.0096 -73.8146 -0.0000 0.0000 -36.4194 -15.9433 13.8914 -3.9235 -7.1250 0.0000 -0.0000 -37.1291 40.7541 4.6398 -0.0000 -0.0000 0.0000 14.0602 0.4665 -53.3244 -50.2536 53.0973 -26.3768 0.0000 0.0000 22.7845 10.6689 7.1210 1.3378 7.1250 -0.0000 -0.0000 26.5561 -22.7002 16.0027
0.8189 15.6948 -1.4510 5.7424 -1.3858 9.2084 0.0000 0.0000 0.0000 -22.6747 -9.3525 -25.1658 2.5943 10.0074 29.0006 0.2198 -2.7308 -8.3328 0.1499 -2.4952 -6.8763 0.0000 0.0000 0.0000 3.2910 16.3793 -28.0312 -4.5617 -12.8725 38.8930 -0.5407 -5.1530 -16.7282 -0.6730 5.2457 -14.6108 4.8868 -2.0264 24.1034 5.5645 -0.5410 0.4305 3.7371 -0.3210 -13.0987 -14.7805 -12.0383 -8.6035 11.3806 -16.5947 18.8710 4.2324 -7.8409 9.5842 0.0000 0.0000 0.0000 -41.4413 20.6039 96.9769 105.7231 -59.0450 -73.5730 -0.0000 0.0000 -36.3586 -16.0572 13.9497 -3.9692 -7.1250 0.0000 -0.0000 -37.2418 40.7897 4.6198 0.0000 0.0000 0.0000 13.5920 0.3223 -53.5612 -50.6576 53.2573 -26.7003 0.0000 0.0000 22.9427 10.8074 6.8577 1.3057 7.1250 -0.0000 -0.0000 26.7000 -22.9337 15.9474
